<?xml version="1.0" standalone="no"?>
<!DOCTYPE svg PUBLIC "-//W3C//DTD SVG 20010904//EN"
 "http://www.w3.org/TR/2001/REC-SVG-20010904/DTD/svg10.dtd">
<svg version="1.0" xmlns="http://www.w3.org/2000/svg"
 width="225.000000pt" height="225.000000pt" viewBox="0 0 225.000000 225.000000"
 preserveAspectRatio="xMidYMid meet">

<g transform="translate(0.000000,225.000000) scale(0.100000,-0.100000)"
fill="#000000" stroke="none">
<path d="M1250 1495 l0 -55 53 0 52 0 0 55 0 55 -52 0 -53 0 0 -55z"/>
<path d="M1420 1275 l0 -275 50 0 50 0 0 85 0 85 35 0 c32 0 35 -2 35 -30 0
-27 3 -30 30 -30 30 0 30 -1 30 -55 l0 -55 50 0 50 0 0 48 c0 48 0 49 -30 44
-28 -4 -30 -2 -30 27 0 26 -4 31 -25 31 -22 0 -25 4 -25 35 0 31 3 35 25 35
21 0 25 5 25 30 0 27 3 30 30 30 29 0 30 1 30 50 l0 50 -50 0 -50 0 0 -60 0
-60 -30 0 c-25 0 -30 -4 -30 -25 0 -22 -4 -25 -35 -25 l-35 0 0 170 0 170 -50
0 -50 0 0 -275z"/>
<path d="M130 1245 l0 -245 56 0 55 0 -3 85 -3 85 83 0 c81 0 82 0 82 25 0 21
5 25 30 25 l30 0 0 105 0 105 -30 0 c-27 0 -30 3 -30 30 l0 30 -135 0 -135 0
0 -245z m220 80 l0 -115 -55 0 -55 0 0 115 0 115 55 0 55 0 0 -115z"/>
<path d="M920 1275 l0 -215 30 0 c27 0 29 -3 25 -30 l-4 -30 80 0 c72 0 79 2
79 20 0 18 -7 20 -55 20 l-55 0 0 148 0 147 55 -3 c53 -4 55 -3 55 22 0 25 -2
26 -55 26 l-55 0 0 55 0 55 -50 0 -50 0 0 -215z"/>
<path d="M580 1354 l0 -25 85 3 85 3 0 -62 0 -63 -85 0 -85 0 0 -30 c0 -25 -4
-30 -25 -30 -23 0 -25 -4 -25 -45 0 -41 2 -45 25 -45 21 0 25 -5 25 -30 l0
-30 135 0 135 0 0 160 0 160 -25 0 c-21 0 -25 5 -25 30 l0 30 -110 0 -110 0 0
-26z m170 -254 l0 -60 -60 0 -60 0 0 60 0 60 60 0 60 0 0 -60z"/>
<path d="M1200 1355 c0 -20 5 -25 25 -25 l25 0 1 -147 c1 -82 1 -156 0 -165
-2 -15 6 -18 48 -18 l50 0 3 190 3 190 -77 0 c-76 0 -78 0 -78 -25z"/>
<path d="M1870 1354 l0 -25 85 3 85 3 0 -62 0 -63 -85 0 -85 0 0 -30 c0 -26
-4 -30 -28 -30 -27 0 -29 -2 -31 -48 l-2 -49 31 5 c28 4 30 2 30 -27 l0 -31
135 0 135 0 0 160 0 160 -30 0 c-27 0 -30 3 -30 30 l0 30 -105 0 -105 0 0 -26z
m160 -254 l0 -60 -55 0 -55 0 0 60 0 60 55 0 55 0 0 -60z"/>
<path d="M1808 863 c-2 -23 -7 -28 -29 -25 -34 4 -55 -34 -42 -75 9 -25 14
-28 56 -29 l47 -2 0 79 c0 62 -3 79 -14 79 -9 0 -16 -12 -18 -27z m-3 -78 c0
-33 -21 -41 -38 -14 -14 22 -1 51 20 47 13 -2 18 -13 18 -33z"/>
<path d="M1892 828 c-33 -33 2 -98 53 -98 37 0 40 18 3 22 -46 4 -49 28 -3 28
34 0 36 2 33 28 -3 23 -8 27 -38 30 -19 2 -41 -3 -48 -10z m66 -16 c2 -7 -6
-12 -17 -12 -21 0 -27 11 -14 24 9 9 26 2 31 -12z"/>
<path d="M2026 818 c32 -103 57 -112 85 -30 15 43 15 52 4 52 -8 0 -17 -15
-21 -35 -7 -37 -15 -43 -32 -22 -11 13 -12 17 -12 42 0 8 -7 15 -16 15 -11 0
-14 -6 -8 -22z"/>
</g>
</svg>
